<svg width="34" height="33" viewBox="0 0 34 33" fill="none" xmlns="http://www.w3.org/2000/svg">
<path d="M30.4671 2.62654C27.8325 4.9357e-07 23.8027 0 16.5509 0C9.29913 0 5.26929 4.9357e-07 2.63464 2.62654C4.95092e-07 5.25309 0 9.27054 0 16.5C0 23.7295 4.95092e-07 27.7469 2.63464 30.3735C5.26929 33 9.29913 33 16.5509 33C23.8027 33 27.8325 33 30.4671 30.3735C33.1018 27.7469 33.1018 23.7295 33.1018 16.5C33.0985 9.27054 33.0985 5.25309 30.4671 2.62654Z" fill="black"/>
<path d="M5.81118 10.5029C6.20378 10.1115 6.80728 10.1115 7.89099 10.1115C8.97469 10.1115 9.5782 10.1115 9.9708 10.5029C10.3634 10.8943 10.3634 11.496 10.3634 12.5764C10.3634 13.6567 10.3634 14.2584 9.9708 14.6498C9.5782 15.0412 8.97469 15.0412 7.89099 15.0412C6.80728 15.0412 6.20378 15.0412 5.81118 14.6498C5.41858 14.2584 5.41858 13.6567 5.41858 12.5764C5.41858 11.496 5.41858 10.8943 5.81118 10.5029Z" fill="white"/>
<path d="M19.4289 22.497C19.0363 22.8884 18.4328 22.8884 17.3491 22.8884H7.89099C6.80728 22.8884 6.20378 22.8884 5.81118 22.497C5.41858 22.1057 5.41858 21.504 5.41858 20.4236C5.41858 19.3433 5.41858 18.7416 5.81118 18.3502C6.20378 17.9588 6.80728 17.9588 7.89099 17.9588H17.3491C18.4328 17.9588 19.0363 17.9588 19.4289 18.3502C19.8215 18.7416 19.8215 19.3433 19.8215 20.4236C19.8247 21.504 19.8247 22.1057 19.4289 22.497Z" fill="white"/>
<path d="M27.3069 22.497C26.9143 22.8884 26.3108 22.8884 25.2271 22.8884C24.1433 22.8884 23.5398 22.8884 23.1472 22.497C22.7546 22.1057 22.7546 21.504 22.7546 20.4236C22.7546 19.3433 22.7546 18.7416 23.1472 18.3502C23.5398 17.9588 24.1433 17.9588 25.2271 17.9588C26.3108 17.9588 26.9143 17.9588 27.3069 18.3502C27.6995 18.7416 27.6995 19.3433 27.6995 20.4236C27.7027 21.504 27.7027 22.1057 27.3069 22.497Z" fill="white"/>
<path d="M27.3068 14.6498C26.9142 15.0412 26.3107 15.0412 25.227 15.0412H15.7689C14.6852 15.0412 14.0817 15.0412 13.6891 14.6498C13.2965 14.2584 13.2965 13.6567 13.2965 12.5764C13.2965 11.496 13.2965 10.8943 13.6891 10.5029C14.0817 10.1115 14.6852 10.1115 15.7689 10.1115H25.227C26.3107 10.1115 26.9142 10.1115 27.3068 10.5029C27.6994 10.8943 27.6994 11.496 27.6994 12.5764C27.7027 13.6567 27.7027 14.2551 27.3068 14.6498Z" fill="white"/>
</svg>
